<svg xmlns="http://www.w3.org/2000/svg" width="1200" height="800" viewBox="0 0 1200 800" role="img" aria-label="Cafe fallback cover">
  <rect width="1200" height="800" fill="#f8faf4"/>
  <path d="M0 620c210-120 340-90 500-170 220-110 390-260 700-180v530H0z" fill="#dcead8"/>
  <circle cx="1010" cy="145" r="96" fill="#2f8f5b"/>
  <rect x="96" y="106" width="640" height="420" rx="56" fill="#184d36"/>
  <rect x="144" y="156" width="544" height="324" rx="36" fill="#f8faf4"/>
  <path d="M288 338h218c0 78-48 124-109 124s-109-46-109-124z" fill="#2f8f5b"/>
  <path d="M506 354h42c34 0 58 22 58 54s-24 54-58 54h-44" fill="none" stroke="#2f8f5b" stroke-width="24" stroke-linecap="round"/>
  <path d="M336 264c-22-36 24-48 0-84M408 264c-22-36 24-48 0-84M480 264c-22-36 24-48 0-84" fill="none" stroke="#184d36" stroke-width="18" stroke-linecap="round"/>
  <text x="96" y="680" fill="#184d36" font-family="Arial, sans-serif" font-size="80" font-weight="900" letter-spacing="-3">WFC JOGJA</text>
  <text x="100" y="730" fill="#2f8f5b" font-family="Arial, sans-serif" font-size="32" font-weight="700">Cafe candidate cover</text>
</svg>
